<svg xmlns="http://www.w3.org/2000/svg" viewBox="0 0 1055.69 165.26"><defs><style>.cls-1{fill:none}.cls-2{clip-path:url(#clip-path)}.cls-3,.cls-5{fill:#fff}.cls-4{fill:#2b90d9}.cls-5{stroke:#fff}</style><clipPath id="clip-path" transform="translate(-494.74 -446.86)"><path class="cls-1" d="M0 0h1920v1080H0z"/></clipPath></defs><g><g class="cls-2"><g id="a"><path class="cls-3" d="M751 521.74a61.36 61.36 0 0 0-15.84-2.34c-11.88 0-22.86 4-33.12 11.88l-1.44-11.52c-2.34-.18-4-.36-5-.36-1.44 0-3.6.36-6.48.72 0 10.08.54 22.86 1.62 38.16 1.44 18 2.88 30.24 4.5 37.08q8.91 0 10.8-1.08c0-.72.18-2.34.18-4.86 0-4.32-1.08-19.62-3.24-46.26 11.16-7.92 23-12.06 35.64-12.06 2.52 0 6.3.36 11.34.9q1.04-3 1.04-10.26zm87.66 70c-.36-3.06-1.44-14-3.6-32.76-2.7-21.42-4.86-34.56-6.66-39.6-4.68.18-8.28.9-10.44 2.34.54 7.38 2.34 23.4 5.4 47.88-8.28 9.18-17.28 13.68-27.36 13.68-8.28 0-14.4-2.34-18-7.38-3.06-3.6-4.5-9.54-4.5-17.46s1.8-20 5.58-35.82a21.61 21.61 0 0 0-10.26-3.24c-5.4 16.74-7.92 30.06-7.92 40 0 11 2.52 19.26 7.2 25 5.4 7.38 14.76 11 27.72 11 11.52-.18 21.42-4.86 29.88-14.22.72 5 1.62 9.18 2.34 12.6a32.71 32.71 0 0 0 10.61-2zm42.12-112.14c-5.22-.36-9.18-.72-11.7-.72-1.26 13-2.34 26.64-3.42 41.22-5.76 0-11.88.36-18.36.9a20.58 20.58 0 0 0-.54 5 15.38 15.38 0 0 0 .54 5 105.42 105.42 0 0 0 17.46 1.44c-1.44 22.5-2 39.06-2 49.5q0 6.21 2.16 9.18c1.8 2.7 5.22 4 9.9 4 8.28 0 15.84-1.62 22.5-5.22 0-1.8.18-3.06.18-3.78a13.23 13.23 0 0 0-1.26-5.4c-3.06.36-6.84 1.08-11.16 2-3.24.36-5.22.54-5.76.54-2.16 0-3.06-.9-3.06-2.7 0-6.84.72-22.68 1.8-47.7 6.12 0 11.7 0 17.1-.36 5.22-.36 8.46-.72 9.54-1.08a29.76 29.76 0 0 0 .36-4.86 44.13 44.13 0 0 1-.36-4.86c-5-.9-13.68-1.44-25.56-1.44.54-13.32 1.08-26.82 1.62-40.68zM992 588.7q0-11.88-1.08-36.72c-.72-16.92-1.8-27-3.06-30.24-.18-.36-2-.72-5.4-.72a25.52 25.52 0 0 0-5.76 1.26c0 9.54.54 24.66 2 45.36-9.36 10.44-18.72 15.66-27.9 15.66-6.84 0-12.42-2.16-16.92-6.84-4.68-5-6.84-11.16-6.84-18.36 0-8.1 2.52-14.76 7.74-19.8 5-4.5 10.26-6.84 15.84-7 6.12 0 12.06 2.52 17.64 7.38a14.27 14.27 0 0 0 5.4-7.92 27.59 27.59 0 0 0-23-11.34c-9.54.18-17.82 3.24-24.66 9.36-7.92 7.56-11.88 17.46-11.88 29.34 0 11.52 3.78 21.06 11.7 28.44 6.84 5.76 15.12 8.46 24.84 8.46 10.08 0 19.8-4.68 29.16-14.4a98.18 98.18 0 0 0 1.44 13.68c2.52 0 6.12 0 10.62-.18-.05-2 .12-3.8.12-5.42zm94.86-35.64c0-9-2.52-16.92-7.56-23.4a28.78 28.78 0 0 0-22.5-10.44c-11.88.36-21.42 3.78-28.8 10.44a10.8 10.8 0 0 0 4.86 9.54c9-4.68 16.38-7.2 22.5-7.56a18.52 18.52 0 0 1 13.5 5.76q4.86 5.4 4.86 16.74c0 7.56-1.62 20.34-4.68 38.16 2.16 1.62 5.76 2.52 11.16 2.52 4.15-9.72 6.31-23.58 6.67-41.76zm-64.08 35.1c0-9.72-.54-23-1.26-40.32-.72-14.4-1.26-23.58-1.8-27.9a45.9 45.9 0 0 0-5.58-.54 25.08 25.08 0 0 0-5.94.9c0 8.28 0 17.82.36 28.62.54 27 1.44 42.12 2.52 45.54a17.76 17.76 0 0 0 5.94.72 12.31 12.31 0 0 0 5.58-1.08c.01-.36.19-2.34.19-5.94zm102.24-8.1c-7.2-5-13.32-7.74-18.18-8.1-4.14 6.48-6.66 12.06-7.38 16.74 4.68 4 10.62 6.66 18 8.64a49 49 0 0 0 4.68-7.38c1.81-4.32 2.86-7.74 2.86-9.9zm37.26-98.82c-1.26-1.08-4-2.34-7.92-4.14-4-1.44-6.84-2.34-8.46-2.34a25.85 25.85 0 0 0-4.68 11.34c.72 1.08 3.42 2.52 7.74 4.14 4.32 1.8 7.38 2.52 9.18 2.52a41 41 0 0 0 4.15-11.52zm-4.14 76.5c0-22.32-.36-34.56-1.08-37.08a14.73 14.73 0 0 0-6.12-1.26 22.42 22.42 0 0 0-6.12.72c-.72 2.16-1.08 13.14-1.08 33.12 0 25 .54 38.88 2 41.4a20 20 0 0 0 5.94.54 13.47 13.47 0 0 0 5.94-1.08c.38-2.16.53-14.4.53-36.36zm102.6-4.68c0-9-2.52-16.92-7.56-23.4a28.78 28.78 0 0 0-22.5-10.44c-11.88.36-21.42 3.78-28.8 10.44a10.8 10.8 0 0 0 4.86 9.54c9-4.68 16.38-7.2 22.5-7.56a18.52 18.52 0 0 1 13.5 5.76q4.86 5.4 4.86 16.74c0 7.56-1.62 20.34-4.68 38.16 2.16 1.62 5.76 2.52 11.16 2.52 4.15-9.72 6.31-23.58 6.67-41.76zm-64.08 35.1c0-9.72-.54-23-1.26-40.32-.72-14.4-1.26-23.58-1.8-27.9a45.9 45.9 0 0 0-5.58-.54 25.08 25.08 0 0 0-5.94.9c0 8.28 0 17.82.36 28.62.54 27 1.44 42.12 2.52 45.54a17.76 17.76 0 0 0 5.94.72 12.31 12.31 0 0 0 5.58-1.08c.01-.36.19-2.34.19-5.94zm140.76-61.92c-.18-1.8-.36-3.6-.36-5.22-5.76-.54-14.58-.9-26.82-.9 0-18 .36-27.72 1.08-29.34q0-3 20.52-5.94a36.58 36.58 0 0 0-1.44-10.44c-18.72 1.08-28.8 3.42-30.24 7.38-2.88 2.88-4.14 15.66-4.14 38.34q-21.33 0-23.76 1.08a15.69 15.69 0 0 0-.72 5.4c0 2.52.18 4.14.72 5a159.84 159.84 0 0 0 23.94 1.44c0 23.4.72 44.1 2.16 61.92.36 0 2.34.18 5.94.18a37.22 37.22 0 0 0 6.3-.54c-.36-11.52-.36-32-.36-61.56 6.12 0 11.7-.18 16.92-.54 5.4-.36 8.64-.9 9.9-1.44a29.76 29.76 0 0 0 .37-4.82zm87.3 32.58c0-11.88-4.32-21.42-12.78-29a15.32 15.32 0 0 0-7.74 7 32.82 32.82 0 0 1 8.1 21.42 21.23 21.23 0 0 1-3.78 12.06 36.94 36.94 0 0 1-9.18 9.18c1.26 2.16 2.16 3.6 2.52 4.32a31.3 31.3 0 0 0 2.7 4.5c5.4-1.8 10.26-5.58 14.4-11.34a32 32 0 0 0 5.76-18.18zm-21.24-34.74q-7.56-5.4-18.36-5.4c-11.88.36-21.6 4.5-29 12.6a40.8 40.8 0 0 0-9.72 27 38.12 38.12 0 0 0 10.44 26.82c6.84 7.2 15.66 10.62 26.64 10.62 5 0 9.36-1.08 12.78-3.42a19.9 19.9 0 0 0-3.06-9.36 30.58 30.58 0 0 1-9.72 1.62 22.28 22.28 0 0 1-17.1-7.56 27.54 27.54 0 0 1-6.84-18.54 29.45 29.45 0 0 1 6.12-18.54c5.22-6.48 11.7-9.72 19.62-9.9a30.45 30.45 0 0 1 13.68 3.6 15.48 15.48 0 0 0 2.34-3.78 11.3 11.3 0 0 0 2.19-5.76z" transform="translate(-494.74 -446.86)"/><circle class="cls-4" cx="82.63" cy="82.63" r="82.63"/><path class="cls-4" d="M609.63 562.63l34.86 12.69 11.09 33.26-33.25-10.3z" transform="translate(-494.74 -446.86)"/><path class="cls-5" d="M624.26 530.92c0-6.75-1.35-12.3-4-16.8q-6.07-9-16.2-9c-6.6.15-12.9 4-19.2 11.85-5.7-12.15-12.75-18.3-21-18.45-6.9.15-12.75 3.75-17.85 10.8a9.3 9.3 0 0 0 1.5 4.35 12.9 12.9 0 0 0 2.25 3.45q6.75-7.65 13.5-7.65c6.45.15 12.75 7.65 18.75 22.35q14.85-15.53 22-15.75c2.85.15 5.4 1.8 7.5 4.8a24 24 0 0 1 2 9.75c0 4.5-1 14.1-3.15 29.1 1.2 1.35 3.9 2 8.4 2 .9-.75 2.25-5.25 3.9-13.35a100.58 100.58 0 0 0 1.6-17.45zm-80.1 29.7v-4.5c0-6.75-.3-16.5-.75-29.1-.75-13.2-1.5-22.5-2.4-27.9a20.23 20.23 0 0 0-5.1-.45 11.78 11.78 0 0 0-4.2.9 37.92 37.92 0 0 0-.15 4.2c0 7.35.15 16.35.6 27.15.6 15.9 1.65 26.1 3 30.75.6 0 2.25.15 4.65.15a6.78 6.78 0 0 0 4.35-1.2z" transform="translate(-494.74 -446.86)"/><path class="cls-4" d="M1550.43 514c-2.71 18.3-5.12 34.91-7.69 49.41-3.4 19.22-6.54 33.1-9.3 41.82-12-1.24-27.38-3.45-46.43-6.81-24.45-4.32-41.25-7.63-50.43-9.78 2.5-23 6.1-48.3 10.7-76.35a22.12 22.12 0 0 1 5 .36 37 37 0 0 1 5.14 1.43c-3.18 22.91-6.46 45.46-9.49 67.52 26.47 4.68 52.27 9.23 77.25 13.47l13.08-74c-8.17-2-16.88-3.85-25.93-5.8-16.11-2.32-31-4.78-44.63-7.19a12.73 12.73 0 0 1 .24-4.3 18.14 18.14 0 0 1 1.14-4.49q16.15 1.55 46.8 6.7a323.56 323.56 0 0 1 34.55 8.01z" transform="translate(-494.74 -446.86)"/><path class="cls-4" d="M1501.51 540a12.18 12.18 0 0 1-2.67-.65l-.48-.26-.08-.54a5.27 5.27 0 0 1-.12-2.28l.48-2.69h.7c2-.35 11.2.59 18.51 1.53 5.79.68 10 1.25 12.23 1.64 1.52.27 1.85.33 2.16.56l.48.26.08.54a6 6 0 0 1-.05 2.25 5.86 5.86 0 0 1-.5 1.83l-.26.48-.37.11c-.93.36-3.55.42-25-2-2.04-.43-3.76-.55-5.11-.78zM1504.24 566.9l-.67-.12a10 10 0 0 1-2.3-.75l-.64-.29.12-.67a161.5 161.5 0 0 1 3.9-22.09l.12-.67.73-.22a5.29 5.29 0 0 1 1.91 0l.67.12a6.71 6.71 0 0 1 2.13.72l.64.29v.7a98.74 98.74 0 0 1-1.45 10.18c-.92 5.23-1.81 9.24-2.45 11.91l-.12.67-.73.22a6.15 6.15 0 0 1-1.86 0zM1489.53 580.29a32.82 32.82 0 0 1-8.94-3.49 40.89 40.89 0 0 1-7.91-5.4c-2.68-2.56-3-3.66-3.06-4.37.12-.67.41-1.32 2-3.3 4.92-5.22 11.17-8.11 18.78-8.85l1.07-.16.16 1.07c.3 1.27.35 2 .46 2.34l-.21 1.18v1h-.87a30.23 30.23 0 0 0-13.54 5.78l-.79.56c.62.46 1.54 1.14 3.72 2.57a63 63 0 0 0 10.84 5.57l.81.32-.15.84a10 10 0 0 1-.93 3.31l-.32.81zM1480.49 534c-1-.18-3.65-1-14.16-5.46-2.92-1.21-4.18-2-4.73-2.75l-.28-.4.09-.51c.12-.67.41-1.32.53-2a9.23 9.23 0 0 1 .8-1.6l.29-.64h.7l.51.09c1.85.33 6.87 2.43 10.77 4 7.77 3.28 8.18 3.88 8.46 4.28l.28.4-.09.51a7.34 7.34 0 0 1-.69 2 8 8 0 0 1-.77 1.43l-.23.31-.37.11c-.27.39-.6.33-1.11.23zM1470.51 559l-.67-.12c-1.49-.44-2-.69-2.3-.75l-.64-.29.12-.67a169.06 169.06 0 0 1 4-22.59l.12-.67.73-.22a5.29 5.29 0 0 1 1.91 0l.67.12a6.71 6.71 0 0 1 2.13.72l.64.29v.7a103.22 103.22 0 0 1-1.48 10.34c-1 5.4-1.84 9.41-2.51 12.25l-.12.67-.73.22a6.15 6.15 0 0 1-1.87 0zM1496.3 526.2l-.84-.15a11.18 11.18 0 0 1-1.8-.66l-.64-.29v-.87c0-1.91 2.44-10.87 4.4-18 3.44-12.61 4.13-13.53 4.39-14l.26-.48.54-.08 2.19.39a5.29 5.29 0 0 1 1.8.66l.48.26.08.54c.19.9-.12 3.63-5.9 24.52-1.31 4.46-2 6.6-2.75 7.69l-.26.48-.54.08a3.34 3.34 0 0 1-1.41-.09zM1488.63 524.32c-.34-.06-1.29-.58-7.39-7.39-5-5.4-5.15-6.3-5.26-6.67l-.08-.54.26-.48a7.05 7.05 0 0 1 1.31-1.51 2.47 2.47 0 0 1 1.22-1l.4-.28.34.06c.67.12 1.66.47 10.1 9.78 1.89 2.07 2.59 3.07 2.78 4l.08.54-.26.48a8 8 0 0 1-1.14 1.54c-.4.28-.66.75-1.25 1.17l-.43.45zM1502.34 527.44l-.25-.57a15.27 15.27 0 0 1-.55-1.84 3.94 3.94 0 0 1-.24-1.61l-.11-.37.23-.31c.46-.62.77-1.43 13.2-5.84 2.6-.93 3.87-1.23 4.54-1.11l.51.09.28.4c.25.57.47 1.3.71 1.87.11.37.19.9.41 1.64v.7l-.43.45c-.23.31-1.05 1-9.78 4.18-6.86 2.44-7.71 2.29-8 2.23z" transform="translate(-494.74 -446.86)"/></g></g></g></svg>
